Coordinates
version=1
nRows=16
nColumns=30
inDegrees=yes

Units are S.I. units (second, meters, Newtons, ...)
Angles are in degrees.

endheader
time	floatyaw	floatroll	floatpitch	floatx	floaty	floatz	pro_sup_l	deviation_l	flexion_l	cmc_flexion_l	cmc_abduction_l	mp_flexion_l	ip_flexion_l	2mcp_flexion_l	2mcp_abduction_l	2pm_flexion_l	2md_flexion_l	3mcp_flexion_l	3mcp_abduction_l	3pm_flexion_l	3md_flexion_l	4mcp_flexion_l	4mcp_abduction_l	4pm_flexion_l	4md_flexion_l	5mcp_flexion_l	5mcp_abduction_l	5pm_flexion_l	5md_flexion_l
-0.495000	-160.147433	-5.066637	-73.570646	0.024958	-0.148901	-0.071378	86.293889	3.140711	-3.103521	11.926065	10.073753	-27.244172	-43.498489	29.273354	9.896534	55.024204	43.463362	28.062496	4.942487	58.008651	40.714972	20.835597	-5.083623	61.825140	46.653509	8.583490	-10.973979	70.276373	52.010081
-0.485000	-160.147433	-5.066637	-73.570646	0.022185	-0.147300	-0.073846	85.817932	3.435509	-3.456182	11.812436	10.383600	-27.449800	-43.780900	29.181843	10.050537	55.814027	44.236822	28.337081	4.994454	58.857158	41.328574	21.166797	-5.096160	62.510336	47.251309	9.090129	-11.161371	70.759838	52.513700
-0.475000	-160.147433	-5.066637	-73.570646	0.019302	-0.145602	-0.076345	85.314505	3.761650	-3.833265	11.740703	10.693390	-27.650878	-44.063931	29.092093	10.183587	56.531956	44.989313	28.635887	5.044147	59.703056	41.919333	21.527123	-5.094855	63.147267	47.816212	9.615738	-11.349726	71.268997	53.028126
-0.465000	-160.147433	-5.066637	-73.570646	0.016301	-0.143797	-0.078887	84.755509	4.093436	-4.235464	11.709405	11.007765	-27.835380	-44.335361	29.012185	10.297345	57.203659	45.737832	28.954453	5.089001	60.532396	42.491092	21.947931	-5.086712	63.710420	48.353764	10.173098	-11.531529	71.801519	53.558204
-0.455000	-160.147433	-5.066637	-73.570646	0.013176	-0.141889	-0.081489	84.118804	4.402662	-4.667068	11.713219	11.323985	-27.998222	-44.599171	28.953142	10.398190	57.874248	46.506155	29.296870	5.128887	61.337350	43.057284	22.454815	-5.081114	64.201178	48.886498	10.780747	-11.700563	72.350864	54.113082
-0.445000	-160.147433	-5.066637	-73.570646	0.009936	-0.139889	-0.084158	83.398856	4.664170	-5.136297	11.752571	11.640309	-28.134067	-44.863606	28.930594	10.494319	58.587966	47.313873	29.677858	5.165544	62.121217	43.636610	23.064063	-5.086229	64.642763	49.445303	11.463071	-11.855036	72.905387	54.700078
-0.435000	-160.147433	-5.066637	-73.570646	0.006604	-0.137825	-0.086888	82.610308	4.860860	-5.654684	11.837422	11.967872	-28.234152	-45.129293	28.960864	10.594882	59.376150	48.172016	30.117237	5.201422	62.906668	44.249969	23.781070	-5.106523	65.073421	50.058491	12.247926	-12.000730	73.454232	55.320255
-0.425000	-160.147433	-5.066637	-73.570646	0.003210	-0.135734	-0.089659	81.783555	4.986991	-6.234012	11.983042	12.335032	-28.291258	-45.388492	29.049171	10.710084	60.259745	49.088193	30.627667	5.238610	63.740801	44.919492	24.598834	-5.142065	65.540635	50.743769	13.158976	-12.151279	73.996637	55.969309
-0.415000	-160.147433	-5.066637	-73.570646	-0.000221	-0.133663	-0.092450	80.956216	5.048949	-6.879894	12.200387	12.776866	-28.308732	-45.634519	29.175954	10.849968	61.258368	50.073695	31.200349	5.278427	64.687813	45.666498	25.494747	-5.189246	66.094407	51.504460	14.202362	-12.323976	74.547691	56.642431
-0.405000	-160.147433	-5.066637	-73.570646	-0.003671	-0.131653	-0.095244	80.164198	5.063143	-7.583849	12.485868	13.313153	-28.306114	-45.871424	29.294428	11.021357	62.390306	51.141030	31.797262	5.321862	65.804788	46.504350	26.427268	-5.242251	66.776348	52.328646	15.352614	-12.532697	75.135182	57.338385
-0.395000	-160.147433	-5.066637	-73.570646	-0.007123	-0.129744	-0.098022	79.433413	5.051206	-8.318389	12.815397	13.928139	-28.316870	-46.115457	29.348218	11.225048	63.656460	52.289075	32.358195	5.370463	67.108386	47.427070	27.338002	-5.294976	67.604663	53.190537	16.546987	-12.781725	75.787029	58.059077
-0.385000	-160.147433	-5.066637	-73.570646	-0.010552	-0.127970	-0.100763	78.772833	5.033449	-9.039231	13.146563	14.566270	-28.378852	-46.388114	29.302320	11.455611	65.019254	53.487676	32.823064	5.426829	68.551814	48.401693	28.163609	-5.343116	68.560894	54.055450	17.695649	-13.063702	76.514593	58.805562
-0.375000	-160.147433	-5.066637	-73.570646	-0.013926	-0.126368	-0.103437	78.171678	5.022171	-9.695335	13.430045	15.148654	-28.521616	-46.706603	29.167098	11.703598	66.397273	54.678911	33.159018	5.493992	70.031083	49.373854	28.854934	-5.385683	69.587791	54.889548	18.706987	-13.362182	77.301334	59.574764
-0.365000	-160.147433	-5.066637	-73.570646	-0.017207	-0.124974	-0.106012	77.603894	5.016726	-10.243430	13.626783	15.602272	-28.755828	-47.077532	28.997268	11.957786	67.687598	55.800999	33.376666	5.573746	71.423775	50.288322	29.393802	-5.425001	70.604693	55.672280	19.518345	-13.656680	78.104985	60.359935
-0.355000	-160.147433	-5.066637	-73.570646	-0.020356	-0.123821	-0.108462	77.039710	5.002152	-10.661535	13.722829	15.886769	-29.069403	-47.496026	28.864522	12.205937	68.808001	56.822702	33.525384	5.664681	72.642302	51.114693	29.797881	-5.464959	71.537316	56.406189	20.118668	-13.927781	78.873827	61.154144
-0.345000	-160.147433	-5.066637	-73.570646	-0.023343	-0.122933	-0.110773	76.459591	4.952512	-10.956310	13.733534	16.006028	-29.432536	-47.949334	28.820137	12.435054	69.736601	57.766878	33.670542	5.761114	73.672792	51.863130	30.111315	-5.508482	72.348792	57.118428	20.553173	-14.160925	79.568718	61.953633
